<svg xmlns="http://www.w3.org/2000/svg" width="52" height="52" fill="none" viewBox="0 0 52 52"><circle cx="26" cy="26" r="26" fill="#fff" transform="rotate(90 26 26)"/><path fill="#FF8A57" d="M26 19L26 35L26 19Z"/><path stroke="#FF8A57" stroke-linecap="round" stroke-linejoin="round" stroke-width="2" d="M26 19L26 35"/><path fill="#FF8A57" d="M32 25L26.4096 18.1978C26.3584 18.1356 26.2955 18.0858 26.225 18.0517C26.1544 18.0176 26.0779 18 26.0005 18C25.9232 18 25.8467 18.0176 25.7761 18.0517C25.7056 18.0858 25.6426 18.1356 25.5915 18.1978L20 25"/><path stroke="#FF8A57" stroke-linecap="round" stroke-linejoin="round" stroke-width="2" d="M32 25L26.4096 18.1978C26.3584 18.1356 26.2955 18.0858 26.225 18.0517C26.1544 18.0176 26.0779 18 26.0005 18C25.9232 18 25.8467 18.0176 25.7761 18.0517C25.7056 18.0858 25.6426 18.1356 25.5915 18.1978L20 25"/></svg>